<svg id="Calque_1" data-name="Calque 1" xmlns="http://www.w3.org/2000/svg" viewBox="0 0 24.26 24.26"><defs><style>.cls-1{fill:#ec5e0d;}.cls-2{fill:#e8eaed;}</style></defs><circle class="cls-1" cx="12.13" cy="12.13" r="12.13"/><path class="cls-2" d="M6.17,18.67A4.1,4.1,0,0,1,2,14.5a4,4,0,0,1,1.22-3,4,4,0,0,1,2.95-1.2,3.91,3.91,0,0,1,2.69,1,4.18,4.18,0,0,1,1.39,2.38h.54L9.29,9.5H7.83V7.83H12V9.5h-.92l.3.83h4L14.17,7H12V5.33h2.17a1.73,1.73,0,0,1,1,.29,1.63,1.63,0,0,1,.61.8l1.42,3.87h.66A4.17,4.17,0,0,1,22,14.46a4.09,4.09,0,0,1-1.21,3,4,4,0,0,1-3,1.23,4,4,0,0,1-2.63-.94,4.14,4.14,0,0,1-1.45-2.4h-3.5a4.09,4.09,0,0,1-1.42,2.39A4,4,0,0,1,6.17,18.67Zm0-1.67a2.37,2.37,0,0,0,1.47-.47,2.48,2.48,0,0,0,.86-1.2H6.17V13.67H8.5a2.42,2.42,0,0,0-.86-1.21A2.36,2.36,0,0,0,6.17,12a2.46,2.46,0,0,0-2.5,2.5,2.44,2.44,0,0,0,.72,1.77A2.37,2.37,0,0,0,6.17,17Zm6.41-3.33h1.17a5,5,0,0,1,.28-.9A3.38,3.38,0,0,1,14.5,12H12ZM17.83,17a2.37,2.37,0,0,0,1.78-.73,2.44,2.44,0,0,0,.72-1.77,2.46,2.46,0,0,0-2.5-2.5h-.08l.83,2.21L17,14.79l-.79-2.21a2.64,2.64,0,0,0-.65.84,2.52,2.52,0,0,0-.23,1.08,2.44,2.44,0,0,0,.72,1.77A2.4,2.4,0,0,0,17.83,17Z"/></svg>